<svg width="348" height="355" viewBox="0 0 348 355" fill="none" xmlns="http://www.w3.org/2000/svg">
<path d="M174.031 100.497L99.1014 0.92749L17.2726 0.92749C7.74492 0.92749 0.0351562 8.61536 0.0351562 18.1431C0.0351562 22.1951 1.48074 25.8747 3.82433 28.8097L3.78053 28.8973L115.835 177.836L3.80243 326.687L3.84623 326.775C1.50264 329.688 0.0351561 333.345 0.0351561 337.354C0.0351561 346.881 7.98585 354.591 17.2726 354.591L99.2109 354.591L174.031 255.153L232.226 177.836L174.031 100.497Z" fill="#C34CFF"/>
<path d="M344.27 28.905L344.226 28.7955C346.548 25.8606 347.994 22.2028 347.994 18.1508C347.994 8.6231 340.284 0.91333 330.756 0.91333L248.949 0.91333L192.703 75.6674L250.899 152.984L344.27 28.905Z" fill="#F661CD"/>
<path d="M344.234 326.699L250.907 202.686L192.711 280.025L248.848 354.604L330.764 354.604C340.073 354.604 348.002 346.894 348.002 337.366C348.002 333.336 346.534 329.7 344.212 326.765L344.234 326.699Z" fill="#F661CD"/>
</svg>
